<svg width="36" height="37" viewBox="0 0 36 37" fill="none" xmlns="http://www.w3.org/2000/svg">
<g id="icon tesoura" clip-path="url(#clip0_2129_91)">
<g id="Group">
<path id="Vector" d="M1.71254 24.2907C3.61203 26.1896 6.69207 26.1902 8.59149 24.2907C9.53199 23.3508 10.0052 22.1231 10.0155 20.8909C10.0167 20.683 10.0167 20.567 10.0913 20.3799C10.1671 20.192 10.4003 19.9917 10.5955 19.8527C11.9265 18.9075 13.1346 18.416 14.1889 18.1978C14.2922 16.4983 13.5515 15.4899 13.5147 15.4417L13.3688 15.2579C12.3295 15.7173 10.8757 16.2783 9.62502 16.872C9.25749 17.046 8.84757 17.1902 8.57996 17.1437C8.31235 17.0971 7.88513 16.8003 7.49012 16.5833C5.64231 15.5704 3.27657 15.846 1.71247 17.4113C-0.18688 19.3106 -0.18688 22.3907 1.71254 24.2907ZM3.29275 18.9914C4.31945 17.9647 5.98459 17.9647 7.01129 18.9914C8.03912 20.0181 8.03912 21.6833 7.01129 22.7099C5.98459 23.7366 4.31945 23.7366 3.29275 22.7099C2.26611 21.6833 2.26611 20.018 3.29275 18.9914Z" fill="#4169E1"/>
<path id="Vector_2" d="M13.5873 22.8443C13.4483 23.0401 13.2474 23.2732 13.0601 23.3478C12.873 23.4236 12.757 23.4231 12.5491 23.4248C11.318 23.4351 10.0892 23.9089 9.14979 24.8482C7.25036 26.7483 7.25036 29.8277 9.14979 31.7278C9.79983 32.3772 10.5877 32.805 11.4202 33.01C11.5362 35.247 12.2482 36.5 12.2482 36.5L13.8284 36.0349C13.2359 34.9341 13.26 33.3751 13.2692 33.1048C14.2797 32.9629 15.2524 32.5041 16.0299 31.7278C17.5941 30.1631 17.8697 27.7974 16.8568 25.9495C16.6398 25.5545 16.3435 25.1273 16.2963 24.8597C16.2504 24.5921 16.394 24.1833 16.5685 23.8152C17.4241 22.0116 18.2143 19.7814 18.7253 18.9913C18.7253 18.9913 30.1611 5.6968 31.5553 3.92999C32.9494 2.16374 33.2285 1.32772 32.6704 0.769585C32.1134 0.211441 31.2763 0.490513 29.51 1.88474C27.7438 3.28002 14.4487 14.7147 14.4487 14.7147C14.4487 14.7147 17.052 17.9681 13.5873 22.8443ZM14.4486 30.1475C13.4219 31.1743 11.7579 31.1743 10.73 30.1475C9.70329 29.1203 9.70329 27.4551 10.73 26.4289C11.7578 25.4017 13.4219 25.4017 14.4486 26.4284C15.4764 27.4551 15.4764 29.1203 14.4486 30.1475ZM17.145 14.9937C17.5045 14.6343 18.0878 14.6343 18.4462 14.9937C18.8056 15.3532 18.8056 15.9355 18.4462 16.2949C18.0878 16.6544 17.5045 16.6544 17.145 16.2949C16.7856 15.9355 16.7856 15.3532 17.145 14.9937Z" fill="#4169E1"/>
</g>
</g>
<defs>
<clipPath id="clip0_2129_91">
<rect width="36" height="36" fill="white" transform="matrix(-1 0 0 -1 36 36.5)"/>
</clipPath>
</defs>
</svg>
